<?xml version="1.0" standalone="no"?>
<!DOCTYPE svg PUBLIC "-//W3C//DTD SVG 20010904//EN"
 "http://www.w3.org/TR/2001/REC-SVG-20010904/DTD/svg10.dtd">
<svg version="1.0" xmlns="http://www.w3.org/2000/svg"
 width="700.000000pt" height="700.000000pt" viewBox="0 0 700.000000 700.000000"
 preserveAspectRatio="xMidYMid meet">
<metadata>
Created by potrace 1.11, written by Peter Selinger 2001-2013
</metadata>
<g transform="translate(0.000000,700.000000) scale(0.100000,-0.100000)"
fill="#000000" stroke="none">
<path d="M2269 6306 c-2 -2 -41 -6 -85 -10 -243 -19 -493 -106 -674 -234 -86
-61 -231 -207 -305 -307 -179 -242 -331 -541 -482 -945 -15 -41 -26 -97 -30
-151 -10 -150 19 -189 140 -190 161 -2 251 45 340 175 130 193 261 340 377
426 163 121 307 160 602 164 79 1 90 -1 110 -22 21 -21 23 -32 22 -120 0 -85
-6 -192 -19 -342 -2 -25 -7 -81 -10 -125 -3 -44 -8 -98 -10 -120 -2 -22 -6
-67 -9 -100 -6 -60 -12 -113 -21 -190 -3 -22 -7 -60 -10 -85 -4 -52 -23 -204
-29 -240 -3 -14 -7 -43 -11 -65 -51 -351 -131 -722 -201 -935 -88 -266 -206
-488 -415 -786 -245 -347 -319 -526 -314 -756 5 -209 82 -357 239 -460 158
-103 375 -107 587 -11 58 27 152 95 204 148 75 76 164 212 223 338 73 156 155
400 177 529 3 17 8 35 10 38 3 4 7 25 11 45 6 43 8 53 22 115 6 25 13 65 17
90 4 25 10 63 15 85 5 22 11 60 15 85 3 25 8 56 10 70 8 42 14 83 20 135 4 28
8 61 10 75 2 14 7 52 11 85 3 33 8 67 9 76 2 9 6 40 9 70 4 30 9 70 11 89 3
19 7 60 10 90 3 30 8 71 10 90 7 61 15 133 20 190 6 74 15 167 20 210 2 19 7
71 11 115 4 44 8 94 10 110 1 17 5 68 9 115 3 47 8 101 10 120 3 19 7 78 11
130 3 52 7 111 9 130 2 19 6 78 10 130 4 52 8 115 10 140 3 25 7 90 10 145 4
55 8 125 10 155 2 30 7 96 10 145 8 133 15 187 26 216 21 54 19 54 580 54
l517 0 26 -24 c29 -27 29 -34 1 -306 -3 -27 -7 -75 -10 -105 -3 -30 -7 -75
-10 -100 -2 -25 -7 -70 -10 -100 -3 -30 -8 -77 -10 -105 -10 -88 -15 -139 -19
-190 -20 -214 -23 -249 -31 -345 -3 -41 -8 -91 -10 -110 -2 -19 -7 -75 -10
-125 -4 -49 -8 -108 -10 -130 -1 -22 -6 -92 -10 -155 -4 -63 -9 -133 -11 -155
-23 -280 -22 -895 1 -1070 2 -16 7 -57 10 -89 13 -131 42 -304 72 -416 13 -52
26 -102 28 -110 9 -44 81 -214 116 -275 62 -107 97 -152 186 -240 200 -199
409 -285 681 -280 299 6 567 129 807 370 104 106 167 195 242 347 79 159 182
487 207 663 4 22 11 65 17 95 16 76 16 207 0 253 -41 119 -206 161 -328 84
-35 -23 -78 -100 -138 -250 -66 -162 -173 -279 -294 -322 -189 -66 -385 -19
-525 128 -108 114 -181 314 -202 562 -5 58 -5 643 0 755 13 272 18 368 21 400
1 19 6 87 9 150 4 63 9 126 11 140 2 14 7 59 10 100 7 87 13 147 30 318 2 26
7 72 10 102 3 30 7 71 10 90 2 19 7 53 10 75 36 285 46 327 82 351 30 19 -2
18 718 25 147 2 292 8 334 15 92 16 170 41 195 62 27 25 64 93 71 130 8 47 9
630 1 671 -17 88 -79 154 -164 177 -37 9 -487 12 -2008 13 -1078 1 -1963 -1
-1965 -3z"/>
</g>
</svg>
