<?xml version="1.0" encoding="utf-8"?>
<!-- Generator: Adobe Illustrator 25.0.1, SVG Export Plug-In . SVG Version: 6.00 Build 0)  -->
<svg version="1.1" id="Layer_1" xmlns="http://www.w3.org/2000/svg" xmlns:xlink="http://www.w3.org/1999/xlink" x="0px" y="0px"
	 viewBox="0 0 1200 1200" style="enable-background:new 0 0 1200 1200;" xml:space="preserve">
<style type="text/css">
	.st0{fill:none;stroke:#000000;stroke-width:20;stroke-linecap:round;stroke-miterlimit:10;}
	.st1{fill:none;stroke:#000000;stroke-width:20;stroke-linecap:round;stroke-linejoin:round;stroke-miterlimit:10;}
	.st2{fill:none;stroke:#000000;stroke-width:20;stroke-miterlimit:10;}
	.st3{fill:#FFFFFF;stroke:#000000;stroke-width:15;stroke-linecap:round;stroke-miterlimit:10;}
	.st4{fill:#FFFFFF;stroke:#000000;stroke-width:15;stroke-miterlimit:10;}
	.st5{fill:none;stroke:#000000;stroke-width:15;stroke-linecap:round;stroke-miterlimit:10;}
	.st6{fill:none;stroke:#000000;stroke-width:15;stroke-linecap:round;stroke-linejoin:round;stroke-miterlimit:10;}
	.st7{fill:none;stroke:#000000;stroke-width:15;stroke-miterlimit:10;}
	.st8{fill:none;stroke:#000000;stroke-width:14.9015;stroke-linecap:round;stroke-miterlimit:10;}
</style>
<path class="st8" d="M585.24,188.7c-31.24,1.26-67.07,4.8-100.08,13.05c0,0-79.96-59.1-144.85-50.99c0,0-33.61,63.73,0,139.06
	c0,0-75.32,50.99-57.94,190.04c17.38,139.06,97.34,205.11,237.56,216.7c0,0-18.78,22.37-28.76,73.29c0,0-26.88,14.1-57.62,15.36
	c-12.95,0.53-44.67-4.15-68.78-23.56c-8.53-6.87-48.21-75.52-90.21-89.14c-5.44-1.76-10.76-1.16-15.31-1.34
	c-37.04-1.42-37.66,14.44-15.98,29.15c24.33,16.51,30.42,27.81,36.51,35.63c6.08,7.82,18.25,24.11,25.2,46.82
	c4.76,15.55,21.33,36.34,39.4,49.02c7.92,5.56,44.28,32.3,140.79,14.21v104.33v58.77h273.34v-58.77V843.73
	c1.74-103.71-34.76-147.17-34.76-147.17c140.22-11.59,220.17-77.64,237.56-216.7c17.38-139.06-57.94-190.04-57.94-190.04
	c33.61-75.32,0-139.06,0-139.06c-64.89-8.11-144.85,50.99-144.85,50.99c-35.57-8.89-74.4-12.31-107.24-13.3"/>
</svg>
