<?xml version="1.0" encoding="utf-8"?>
<!-- Generator: Adobe Illustrator 25.0.1, SVG Export Plug-In . SVG Version: 6.00 Build 0)  -->
<svg version="1.1" id="Layer_1" xmlns="http://www.w3.org/2000/svg" xmlns:xlink="http://www.w3.org/1999/xlink" x="0px" y="0px"
	 viewBox="0 0 1200 1200" style="enable-background:new 0 0 1200 1200;" xml:space="preserve">
<style type="text/css">
	.st0{fill:none;stroke:#000000;stroke-width:20;stroke-linecap:round;stroke-miterlimit:10;}
	.st1{fill:none;stroke:#000000;stroke-width:20;stroke-linecap:round;stroke-linejoin:round;stroke-miterlimit:10;}
	.st2{fill:none;stroke:#000000;stroke-width:20;stroke-miterlimit:10;}
	.st3{fill:#FFFFFF;stroke:#000000;stroke-width:15;stroke-linecap:round;stroke-miterlimit:10;}
	.st4{fill:#FFFFFF;stroke:#000000;stroke-width:15;stroke-miterlimit:10;}
	.st5{fill:none;stroke:#000000;stroke-width:15;stroke-linecap:round;stroke-miterlimit:10;}
	.st6{fill:none;stroke:#000000;stroke-width:15;stroke-linecap:round;stroke-linejoin:round;stroke-miterlimit:10;}
	.st7{fill:none;stroke:#000000;stroke-width:15;stroke-miterlimit:10;}
	.st8{fill:none;stroke:#000000;stroke-width:14.9015;stroke-linecap:round;stroke-miterlimit:10;}
</style>
<path class="st1" d="M100,639.59V479.38c0-135.89,110.16-246.05,246.05-246.05h507.9c135.89,0,246.05,110.16,246.05,246.05v241.25
	c0,135.89-110.16,246.05-246.05,246.05h-507.9C210.16,966.67,100,856.51,100,720.62"/>
<path class="st1" d="M749.47,543.5l53.79,29.28c11.67,6.35,11.64,23.12-0.05,29.43l-333.95,180.4c-11.15,6.02-24.69-2.05-24.7-14.72
	l-0.14-362.25c-0.01-12.7,13.59-20.78,24.74-14.71l225.94,122.98"/>
</svg>
