<?xml version="1.0" encoding="utf-8"?>
<!-- Generator: Adobe Illustrator 25.0.1, SVG Export Plug-In . SVG Version: 6.00 Build 0)  -->
<svg version="1.1" id="Layer_1" xmlns="http://www.w3.org/2000/svg" xmlns:xlink="http://www.w3.org/1999/xlink" x="0px" y="0px"
	 viewBox="0 0 1200 1200" style="enable-background:new 0 0 1200 1200;" xml:space="preserve">
<style type="text/css">
	.st0{fill:none;stroke:#000000;stroke-width:60;stroke-linecap:round;stroke-miterlimit:10;}
	.st1{fill:none;stroke:#000000;stroke-width:20;stroke-linecap:round;stroke-linejoin:round;stroke-miterlimit:10;}
	.st2{fill:none;stroke:#000000;stroke-width:20;stroke-miterlimit:10;}
	.st3{fill:#FFFFFF;stroke:#000000;stroke-width:15;stroke-linecap:round;stroke-miterlimit:10;}
	.st4{fill:#FFFFFF;stroke:#000000;stroke-width:15;stroke-miterlimit:10;}
	.st5{fill:none;stroke:#000000;stroke-width:15;stroke-linecap:round;stroke-miterlimit:10;}
	.st6{fill:none;stroke:#000000;stroke-width:15;stroke-linecap:round;stroke-linejoin:round;stroke-miterlimit:10;}
	.st7{fill:none;stroke:#000000;stroke-width:15;stroke-miterlimit:10;}
	.st8{fill:none;stroke:#000000;stroke-width:14.9015;stroke-linecap:round;stroke-miterlimit:10;}
</style>
<path class="st0" d="M538.72,415.94c0,0-195.88-13.76-355.76-206.47c0,0-97.41,199.06,84.71,285.88c0,0-75.83-8.59-116.47-38.12
	c0,0-9.53,171.53,170.47,202.24c0,0-30.71,20.12-96.35,6.35c0,0,31.76,123.88,187.41,144c0,0-136.59,115.41-300.71,77.29
	c0,0,141.85,124.97,388.33,90.56c50.17-7,104.68-20.61,163.2-43.21c13.93-5.38,60.31-26.08,87.28-44.23
	c15.04-10.13,32.93-23.29,52.13-39.74c42-35.98,90.34-87.66,129.17-157.58c44.74-80.57,76.86-185.37,72.12-318.26
	c0,0,73.41-25.41,101.65-105.88c0,0-86.65,38.82-120.53,38.82c0,0,82.41-45.88,93.71-113.65l-127.06,46.59
	c-100.94-123.53-357.88-73.41-352.24,156"/>
</svg>
