<?xml version="1.0" encoding="utf-8"?>
<!-- Generator: Adobe Illustrator 25.0.1, SVG Export Plug-In . SVG Version: 6.00 Build 0)  -->
<svg version="1.1" id="Layer_1" xmlns="http://www.w3.org/2000/svg" xmlns:xlink="http://www.w3.org/1999/xlink" x="0px" y="0px"
	 viewBox="0 0 1200 1200" style="enable-background:new 0 0 1200 1200;" xml:space="preserve">
<style type="text/css">
	.st0{fill:none;stroke:#000000;stroke-width:20;stroke-linecap:round;stroke-miterlimit:10;}
	.st1{fill:none;stroke:#000000;stroke-width:20;stroke-linecap:round;stroke-linejoin:round;stroke-miterlimit:10;}
	.st2{fill:none;stroke:#000000;stroke-width:20;stroke-miterlimit:10;}
	.st3{fill:#FFFFFF;stroke:#000000;stroke-width:15;stroke-linecap:round;stroke-miterlimit:10;}
	.st4{fill:#FFFFFF;stroke:#000000;stroke-width:15;stroke-miterlimit:10;}
	.st5{fill:none;stroke:#000000;stroke-width:15;stroke-linecap:round;stroke-miterlimit:10;}
	.st6{fill:none;stroke:#000000;stroke-width:15;stroke-linecap:round;stroke-linejoin:round;stroke-miterlimit:10;}
	.st7{fill:none;stroke:#000000;stroke-width:15;stroke-miterlimit:10;}
	.st8{fill:none;stroke:#000000;stroke-width:14.9015;stroke-linecap:round;stroke-miterlimit:10;}
</style>
<path class="st6" d="M338.56,482.17c-6.18,3.35-12.23,6.92-18.13,10.68c-83.75,53.38-139.31,147.08-139.31,253.77
	c0,166.07,134.75,306.95,300.7,300.7c300.37-11.31,298.56-292.39,297.88-341.97V393.32c106.08,88.97,208.78,95.6,208.78,95.6
	l30.16-156.83c-152,2.41-238.94-184.58-238.94-184.58H621.6v332.8c0,0-0.01,0-0.01-0.01v190.17c0,0-0.15,70.88-0.15,78.19
	c0,78.55-61.92,141.3-140.44,141.3c-78.55,0-142.2-63.65-142.2-142.2c0-63.15,41.38-116.08,98.16-135.23
	c44.84-15.12,97.93-5.7,97.93-5.7V450.58c-17.23-3.08-34.97-4.67-53.07-4.67c-27.69,0-54.51,3.74-79.97,10.75"/>
</svg>
