<?xml version="1.0" encoding="utf-8"?>
<!-- Generator: Adobe Illustrator 25.0.1, SVG Export Plug-In . SVG Version: 6.00 Build 0)  -->
<svg version="1.1" id="Layer_1" xmlns="http://www.w3.org/2000/svg" xmlns:xlink="http://www.w3.org/1999/xlink" x="0px" y="0px"
	 viewBox="0 0 1200 1200" style="enable-background:new 0 0 1200 1200;" xml:space="preserve">
<style type="text/css">
	.st0{fill:none;stroke:#000000;stroke-width:60;stroke-linecap:round;stroke-miterlimit:10;}
	.st1{fill:none;stroke:#000000;stroke-width:60;stroke-linecap:round;stroke-linejoin:round;stroke-miterlimit:10;}
	.st2{fill:none;stroke:#000000;stroke-width:60;stroke-miterlimit:10;}
	.st3{fill:#FFFFFF;stroke:#000000;stroke-width:15;stroke-linecap:round;stroke-miterlimit:10;}
	.st4{fill:#FFFFFF;stroke:#000000;stroke-width:15;stroke-miterlimit:10;}
	.st5{fill:none;stroke:#000000;stroke-width:15;stroke-linecap:round;stroke-miterlimit:10;}
	.st6{fill:none;stroke:#000000;stroke-width:15;stroke-linecap:round;stroke-linejoin:round;stroke-miterlimit:10;}
	.st7{fill:none;stroke:#000000;stroke-width:15;stroke-miterlimit:10;}
	.st8{fill:none;stroke:#000000;stroke-width:14.9015;stroke-linecap:round;stroke-miterlimit:10;}
</style>
<circle class="st2" cx="445" cy="651.45" r="68.09"/>
<circle class="st2" cx="751.91" cy="651.45" r="68.09"/>
<circle class="st2" cx="937.47" cy="249.15" r="81.73"/>
<path class="st0" d="M844.66,440.13c3.73,1.83,7.43,3.7,11.08,5.61c17.66,9.24,34.36,19.41,49.95,30.41
	c10.55-7.41,24.15-15.33,41.56-22.86c58.58-25.36,144.27,5.25,152.14,87.44c7.87,82.19-63.77,114.73-63.77,114.73l-0.69,0.12
	c3.97,17.43,6.06,35.32,6.06,53.58c0,178.62-197.6,323.41-441.34,323.41s-441.34-144.8-441.34-323.41c0-18.29,2.11-36.22,6.09-53.69
	l-0.03-0.01c0,0-71.64-32.54-63.77-114.73s93.56-112.8,152.14-87.44c17.22,7.45,30.71,15.28,41.21,22.62
	c79.32-55.83,187.03-90.16,305.7-90.16c62.65,0,122.25,9.57,176.23,26.82c3.75,1.2,7.47,2.43,11.17,3.71"/>
<path class="st1" d="M855.74,234.48l-161.73-34.64c-6.16-1.19-12.24,2.35-14.26,8.28l-54.29,177.63"/>
<path class="st1" d="M445,837.15c0,0,172.58,115.42,306.91-5.25"/>
</svg>
