<?xml version="1.0" encoding="utf-8"?>
<!-- Generator: Adobe Illustrator 25.0.1, SVG Export Plug-In . SVG Version: 6.00 Build 0)  -->
<svg version="1.1" id="Layer_1" xmlns="http://www.w3.org/2000/svg" xmlns:xlink="http://www.w3.org/1999/xlink" x="0px" y="0px"
	 viewBox="0 0 1200 1200" style="enable-background:new 0 0 1200 1200;" xml:space="preserve">
<style type="text/css">
	.st0{fill:none;stroke:#000000;stroke-width:20;stroke-linecap:round;stroke-miterlimit:10;}
	.st1{fill:none;stroke:#000000;stroke-width:20;stroke-linecap:round;stroke-linejoin:round;stroke-miterlimit:10;}
	.st2{fill:none;stroke:#000000;stroke-width:20;stroke-miterlimit:10;}
	.st3{fill:#FFFFFF;stroke:#000000;stroke-width:15;stroke-linecap:round;stroke-miterlimit:10;}
	.st4{fill:#FFFFFF;stroke:#000000;stroke-width:15;stroke-miterlimit:10;}
	.st5{fill:none;stroke:#000000;stroke-width:15;stroke-linecap:round;stroke-miterlimit:10;}
	.st6{fill:none;stroke:#000000;stroke-width:15;stroke-linecap:round;stroke-linejoin:round;stroke-miterlimit:10;}
	.st7{fill:none;stroke:#000000;stroke-width:15;stroke-miterlimit:10;}
	.st8{fill:none;stroke:#000000;stroke-width:14.9015;stroke-linecap:round;stroke-miterlimit:10;}
</style>
<path class="st8" d="M554.98,297.01c-0.34,0.02-0.51,0.03-0.51,0.03l0,0.01c-141.7,9.88-255.03,81.45-255.03,81.45
	c83.39-78.05,188.76-105.06,188.76-105.06l-9.24-20.64c-118.31,11.71-204.58,86.27-204.58,86.27
	c-106.6,187.94-121.39,475.09-121.39,475.09c104.75,128.17,262.19,133.1,262.19,133.1l35.33-50.94
	c-101.67-36.97-168.43-120.98-168.43-120.98s89.71,91.2,285.2,103.52c0,0,13.33,1.14,35.71,0.89c22.38,0.25,35.71-0.89,35.71-0.89
	c195.48-12.32,285.19-103.52,285.19-103.52s-66.75,84.01-168.43,120.98l35.33,50.94c0,0,157.44-4.93,262.19-133.1
	c0,0-14.79-287.15-121.39-475.09c0,0-86.27-74.56-204.58-86.27l-9.24,20.64c0,0,105.37,27.01,188.76,105.06
	c0,0-113.33-71.57-255.03-81.45l0-0.01c0,0-0.18-0.01-0.51-0.03c-11.46-0.79-34.88-1.07-34.88-1.07 M468,727.26
	c-38.71,0-70.09-38.21-70.09-85.34c0-47.13,31.38-85.34,70.09-85.34c38.71,0,70.09,38.21,70.09,85.34
	C538.09,689.05,506.71,727.26,468,727.26z M737.94,727.26c-38.71,0-70.09-38.21-70.09-85.34c0-47.13,31.38-85.34,70.09-85.34
	c38.71,0,70.09,38.21,70.09,85.34C808.04,689.05,776.66,727.26,737.94,727.26z"/>
</svg>
