<?xml version="1.0" encoding="utf-8"?>
<!-- Generator: Adobe Illustrator 25.0.1, SVG Export Plug-In . SVG Version: 6.00 Build 0)  -->
<svg version="1.1" id="Layer_1" xmlns="http://www.w3.org/2000/svg" xmlns:xlink="http://www.w3.org/1999/xlink" x="0px" y="0px"
	 viewBox="0 0 1200 1200" style="enable-background:new 0 0 1200 1200;" xml:space="preserve">
<style type="text/css">
	.st0{fill:none;stroke:#000000;stroke-width:20;stroke-linecap:round;stroke-miterlimit:10;}
	.st1{fill:none;stroke:#000000;stroke-width:20;stroke-linecap:round;stroke-linejoin:round;stroke-miterlimit:10;}
	.st2{fill:none;stroke:#000000;stroke-width:20;stroke-miterlimit:10;}
	.st3{fill:none;stroke:#000000;stroke-width:60;stroke-linecap:round;stroke-miterlimit:10;}
	.st4{fill:none;stroke:#000000;stroke-width:60;stroke-miterlimit:10;}
	.st5{fill:none;stroke:#000000;stroke-width:15;stroke-linecap:round;stroke-miterlimit:10;}
	.st6{fill:none;stroke:#000000;stroke-width:15;stroke-linecap:round;stroke-linejoin:round;stroke-miterlimit:10;}
	.st7{fill:none;stroke:#000000;stroke-width:15;stroke-miterlimit:10;}
	.st8{fill:none;stroke:#000000;stroke-width:14.9015;stroke-linecap:round;stroke-miterlimit:10;}
</style>
<g>
	<g>
		<polyline class="st3" points="178.49,509.82 178.49,998.66 388.1,998.66 388.1,399.61 178.49,399.61 178.49,449.12 		"/>
		<path class="st4" d="M283.3,100.08c-65.66,0-117.05,60.34-102.25,128.3c8.6,39.49,40.8,71.22,80.42,79.18
			c67.56,13.57,126.63-37.57,126.63-102.67C388.1,147.1,341.26,100.08,283.3,100.08z"/>
		<path class="st3" d="M682.49,872.65V685.07c0-78.28,14.83-137.41,111.62-137.41c95.41,0,103.07,72.77,103.07,142.49v308.51h179.83
			c0,0,3.33-388.64,0-415.03c-14.1-112.91-70.57-184.02-223.21-184.02c-108.33,0-151.4,16.9-176.24,64.18l0,0v-64.18H507.86v599.05
			h174.63v-61.07"/>
	</g>
</g>
</svg>
